<?xml version="1.0" standalone="no"?><!DOCTYPE svg PUBLIC "-//W3C//DTD SVG 1.1//EN" "http://www.w3.org/Graphics/SVG/1.1/DTD/svg11.dtd"><svg t="1768558247422" class="icon" viewBox="0 0 1906 1024" version="1.1" xmlns="http://www.w3.org/2000/svg" p-id="1881" width="29.78125" height="16" xmlns:xlink="http://www.w3.org/1999/xlink"><path d="M88.206 210.883v78.067h105.442v-78.067H88.206z m0 602.234h105.442V735.05H88.206v78.067zM1714.44 210.883v78.067h105.441v-78.067H1714.44z m0 602.234h105.441V735.05H1714.44v78.067zM621.497 211.897h-199.73c-5.07 0-10.14 4.055-10.14 9.125v260.562H409.6c-11.152 0-19.263 8.111-19.263 19.264v46.637c0 10.139 9.124 19.264 19.263 19.264h2.028v226.09c0 10.14 9.124 19.264 19.263 19.264h60.832c11.152 0 19.263-8.11 19.263-19.263V566.749h111.525c16.222 0 29.402-13.18 29.402-28.389V240.285c-1.014-15.208-14.194-28.388-30.416-28.388z m-65.901 261.576c0 5.07-4.055 9.125-10.139 9.125h-29.402c-2.027 0-4.055-1.014-6.083-2.028l-3.041-4.055V306.186c0-5.07 4.055-9.125 10.138-9.125h29.402c5.07 0 10.139 4.056 10.139 9.125v167.287z m382.226-259.548h-77.054c-5.069 0-10.138 4.055-10.138 9.125v494.764c0 5.07-4.056 9.125-10.139 9.125h-39.54c-5.07 0-10.14-4.056-10.14-9.125v-493.75c0-5.07-4.055-9.125-10.138-9.125H703.62c-5.07 0-10.139 4.055-10.139 9.124V753.3c0 31.43 26.36 56.776 57.79 56.776h134.844c32.443 0 57.79-25.346 57.79-56.776V224.063c4.055-5.069 0-10.138-6.083-10.138z m252.451-2.028h-169.315c-11.152 0-19.263 8.11-19.263 19.263v247.383h-10.139c-5.069 0-10.138 4.055-10.138 9.124v68.943c0 5.07 4.055 9.125 10.138 9.125h10.14V787.77c0 10.139 9.124 19.264 19.262 19.264h169.315c21.291 0 38.527-17.236 38.527-38.527V546.47c0-21.29-17.236-38.526-38.527-38.526 21.291 0 38.527-17.236 38.527-38.527V247.382c0-18.25-17.236-35.485-38.527-35.485z m-50.693 529.236c0 5.069-4.055 9.124-10.138 9.124h-29.402c-5.07 0-10.139-4.055-10.139-9.124V576.887c0-5.07 4.055-9.125 10.139-9.125h29.402c5.069 0 10.138 4.056 10.138 9.125v164.246z m0-298.076c0 5.07-4.055 9.125-10.138 9.125h-29.402c-5.07 0-10.139-4.055-10.139-9.125V278.812c0-5.07 4.055-9.125 10.139-9.125h29.402c5.069 0 10.138 4.056 10.138 9.125v164.245z m301.117-86.178h66.915c6.083 0 10.138-5.07 10.138-10.138V245.354c0-19.263-15.207-34.47-34.47-34.47H1331.2c-30.416 0-54.749 24.332-54.749 53.734v489.695c0 29.402 24.333 53.735 54.749 53.735h131.802c30.416 0 54.748-24.333 54.748-53.735v-299.09c0-5.069-4.055-10.138-10.138-10.138h-95.303c-5.07 0-10.139 4.056-10.139 10.139v65.9c0 5.07 4.056 10.14 10.139 10.14h7.097c5.07 0 10.139 4.055 10.139 10.138v178.44c0 5.069-4.056 9.124-10.14 9.124h-45.623c-5.07 0-10.138-4.055-10.138-9.124V302.13c0-5.07 4.055-9.125 10.138-9.125h45.624c5.07 0 10.139 4.055 10.139 9.125v45.623c1.013 4.056 5.069 9.125 11.152 9.125z" fill="#F3A000" p-id="1882"></path><path d="M163.232 11.152v1001.696h1582.637V11.152H163.232z m1521.806 940.864H224.063V71.984h1460.975v880.032z" fill="#F3A000" p-id="1883"></path></svg>